<svg viewBox="0 0 1080 2130"><g id="layer1">
<g >
<path d="M174.27417,564.0L174.27417,564.0L918.1355,564.001C920.8969,564.001,923.1355,566.23956,923.1355,569.001L923.1355,569.001L923.1355,1312.8613C923.1355,1315.6228,920.8969,1317.8613,918.1355,1317.8613L918.1355,1317.8613L174.27417,1317.8623C172.94809,1317.8623,171.67632,1317.3354,170.73863,1316.3978C169.80095,1315.4602,169.27417,1314.1884,169.27417,1312.8623L169.27417,1312.8623L169.27417,569.0C169.27417,567.6739,169.80095,566.40216,170.73863,565.4645C171.67632,564.5268,172.94809,564.0,174.27417,564.0L174.27417,564.0 M174.27417,574.0L179.27417,569.0L179.27417,1312.8623L174.27417,1307.8623L918.1355,1307.8613L913.1355,1312.8613L913.1355,569.001L918.1355,574.001L174.27417,574.0 Z"></path></g>
<g >
<path d="M410.737,568.6907L410.737,568.6907L410.737,909.06494L410.737,909.0649L410.73706,914.8238L410.73706,914.833L410.00775,1314.0044C410.00272,1316.7659,407.76004,1319.0002,404.99863,1318.9952C402.2372,1318.9902,400.00272,1316.7476,400.00775,1313.9861L400.00775,1313.9861L400.73706,914.8147L400.73706,914.8239L400.737,909.065L400.737,909.06494L400.737,568.6907C400.737,565.92926,402.9756,563.6907,405.737,563.6907C408.4984,563.6907,410.737,565.92926,410.737,568.6907 Z"></path></g>
<g >
<path d="M681.2497,573.699L681.2497,573.699L677.31793,1315.2451C677.3033,1318.0065,675.0529,1320.2332,672.2915,1320.2185C669.5301,1320.2039,667.3034,1317.9535,667.31805,1315.1921L667.31805,1315.1921L671.2498,573.646C671.26447,570.8846,673.51483,568.6579,676.27625,568.67255C679.03766,568.6872,681.26434,570.93756,681.2497,573.699 Z"></path></g>
<g >
<path d="M175.73741,783.0248C172.97615,783.0248,170.73766,785.2631,170.73741,788.02435C170.73717,790.7856,172.97528,793.0243,175.73654,793.0248L181.38661,793.02576C181.38692,793.02576,181.3872,793.02576,181.38751,793.02576C181.42087,793.02576,181.45415,793.02545,181.48734,793.0248L910.333,793.0248C913.0944,793.0248,915.333,790.7862,915.333,788.0248C915.333,785.26337,913.0944,783.0248,910.333,783.0248 Z"></path></g>
<g>
<path d="M920.0282,1066.2013L920.0282,1066.2013C768.5025,1066.9105,547.0313,1064.112,546.7604,1064.1086L546.82434,1064.109L546.8241,1064.109L546.8241,1064.109C377.45767,1064.109,221.94199,1061.9369,181.59583,1061.3267L181.55246,1061.3258L174.9777,1061.1693C172.21707,1061.1036,170.0324,1058.8124,170.0981,1056.0518C170.1638,1053.2911,172.45502,1051.1066,175.21565,1051.1722L175.21565,1051.1722L181.7904,1051.3287L181.74704,1051.3279C222.07169,1051.9377,377.53125,1054.109,546.8241,1054.109L546.8241,1054.109L546.82434,1054.109L546.8883,1054.1094C547.189,1054.1133,768.53705,1056.9102,919.98145,1056.2013C922.74286,1056.1884,924.9918,1058.4165,925.00476,1061.1779C925.0177,1063.9392,922.7896,1066.1884,920.0282,1066.2013 Z"></path></g>
</g>
</svg>